# xmcd CD database file
#
# Track frame offsets:
#	150
#	16745
#	30497
#	54990
#	73330
#	88387
#	104795
#	118282
#	128390
#	145910
#	161450
#	184250
#
# Disc length: 2695 seconds
#
# Revision: 1
# Processed by: cddbd v1.4PL0 Copyright (c) Steve Scherf et al.
# Submitted via: NeoAudio 9.9.9
#
DISCID=a80a850c
DTITLE=Nick Farr - Winterbourne
DYEAR=1900
DGENRE=New Age
TTITLE0=Fall Leaves Winter Comes
TTITLE1=Wintering Lakeside
TTITLE2=Harbour Cruise
TTITLE3=Winterbourne
TTITLE4=HinterLand
TTITLE5=Snowy Meadow
TTITLE6=Unexpected Guest
TTITLE7=Gathering Round the Old Fir Tree
TTITLE8=Just Believe
TTITLE9=Red Sky in the Morning
TTITLE10=Sailors Take Warning
TTITLE11=Conifer Green
EXTD=
EXTT0=
EXTT1=
EXTT2=
EXTT3=
EXTT4=
EXTT5=
EXTT6=
EXTT7=
EXTT8=
EXTT9=
EXTT10=
EXTT11=
PLAYORDER=
